<?xml version="1.0" encoding="utf-8"?><!-- Uploaded to: SVG Repo, www.svgrepo.com, Generator: SVG Repo Mixer Tools -->
<svg version="1.1" id="Uploaded to svgrepo.com" xmlns="http://www.w3.org/2000/svg" xmlns:xlink="http://www.w3.org/1999/xlink" 
	 width="800px" height="800px" viewBox="0 0 32 32" xml:space="preserve">
<style type="text/css">
	.stone_een{fill:#14b8a6;}
</style>
<path class="stone_een" d="M31.359,22.43l-7.181-6.267C23.02,18.436,20.663,20,17.942,20c-3.86,0-7-3.141-7-7
	c0-0.276,0.224-0.5,0.5-0.5s0.5,0.224,0.5,0.5c0,3.309,2.691,6,6,6c2.423,0,4.509-1.446,5.456-3.518L12.923,6.341
	C12.605,4.45,10.993,3,9.012,3C7.535,3,6.26,3.809,5.567,5H3.248C2.625,5,2.025,5.16,1.5,5.45C0.678,5.904,0.91,7.15,1.836,7.304
	L5.115,7.85c0.323,1.464,1.448,2.616,2.897,2.99v2.16c0,4.961,3.616,9.066,8.353,9.853l2.647,2.647v0.833L17.762,28h-2.25
	c-0.276,0-0.5,0.224-0.5,0.5c0,0.276,0.224,0.5,0.5,0.5h2.75l1.75-2.333l0-3.897c1.24-0.256,2.432-0.725,3.496-1.434L24.013,21
	l6.496,2.784c0.304,0.13,0.657,0.062,0.891-0.172C31.731,23.281,31.712,22.739,31.359,22.43z M9.012,8c-0.552,0-1-0.448-1-1
	c0-0.552,0.448-1,1-1s1,0.448,1,1C10.012,7.552,9.564,8,9.012,8z"/>
</svg>
